<svg width="50" height="50" viewBox="0 0 64 64" xmlns="http://www.w3.org/2000/svg">
  <title>Isotipo Grupo CAE - Cerebro AI</title>
  <desc>Logo conceptual para Grupo CAE basado en imagen de cerebro/IA.</desc>
  <defs>
    <linearGradient id="brainGradient" x1="0%" y1="0%" x2="80%" y2="100%">
      <stop offset="0%" style="stop-color:#2dd4bf; stop-opacity:1"/> <stop offset="100%" style="stop-color:#3b82f6; stop-opacity:1"/> </linearGradient>
  </defs>
  <g stroke="url(#brainGradient)" stroke-width="3" fill="none" stroke-linecap="round" stroke-linejoin="round">
    <path d="M32 2 C18 2 6 14 6 28 C6 38 13 48 22 52 L20 62"/>
    <path d="M32 2 C46 2 58 14 58 28 C58 40 50 50 42 53 M44 56 L46 62"/>
    <path d="M22 52 A 20 20 0 0 0 42 53"/>
    <circle cx="12" cy="28" r="4" fill="url(#brainGradient)" stroke="none"/>
    <circle cx="28" cy="42" r="4" fill="url(#brainGradient)" stroke="none"/>
    <circle cx="44" cy="40" r="4" fill="url(#brainGradient)" stroke="none"/>
     <circle cx="38" cy="58" r="4" fill="url(#brainGradient)" stroke="none"/>
    <path d="M14 28 H 24"/>
    <path d="M12 32 L 26 40"/>
    <path d="M30 44 L 36 56"/>
     <path d="M42 42 L 40 56"/>
     <path d="M46 40 L 52 28"/>
    <path d="M48 12 A 10 10 0 0 1 58 22"/>
    <path d="M52 8 A 15 15 0 0 1 62 23"/>
     <path d="M56 4 A 20 20 0 0 1 66 24"/>
  </g>
</svg>
